<svg width="145" height="145" viewBox="0 0 145 145" fill="none" xmlns="http://www.w3.org/2000/svg">
<g clip-path="url(#clip0_608_8)">
<path d="M100.919 71.7396L100.967 71.6668L100.959 71.6587L100.919 71.7396Z" fill="#030104"/>
<path d="M139.232 81.7626C139.232 81.7626 137.752 79.7483 134.249 78.4054C134.249 78.4054 133.958 78.3164 133.505 78.1708C130.382 76.7066 127.421 75.7682 127.421 75.7682C126.79 75.5417 126.24 75.3151 125.722 75.0967C123.611 74.0451 122.082 72.8397 122.082 72.8397C122.082 72.8397 122.066 72.8235 120.44 71.1975C123.36 68.1719 125.504 64.0623 126.175 60.1307C126.693 59.5968 127.219 58.7393 127.445 57.3722C127.866 55.8513 128.392 53.1898 127.462 51.952C127.405 51.8873 127.356 51.8307 127.3 51.7741C128.173 48.5706 129.29 41.9532 125.326 37.4391C124.97 36.9861 122.753 34.3327 117.997 32.925L115.731 32.1403C111.986 30.9835 109.632 30.7327 109.535 30.7166C109.365 30.7004 109.187 30.7166 109.025 30.757C108.896 30.7975 108.451 30.9107 108.111 30.8622C107.213 30.7327 105.87 31.1938 105.627 31.2909C105.32 31.4123 98.0716 34.3165 95.8793 41.0633C95.677 41.6053 94.7953 44.4772 95.9602 51.5152C95.7903 51.6285 95.6366 51.7741 95.491 51.952C94.5526 53.1898 95.0784 55.8351 95.5071 57.3641C95.7256 58.715 96.2514 59.5645 96.7611 60.1065C97.3435 63.9895 99.2041 67.727 101.655 70.5907C101.655 70.5907 103.516 73.8105 103.751 74.1098C109.648 82.8467 110.392 99.6894 110.465 101.582L110.473 101.704L110.465 101.833C110.368 107.723 107.439 109.769 105.87 110.449C105.11 110.789 104.317 111.088 103.516 111.395C103.912 110.813 104.301 109.802 104.325 108.014C104.325 108.014 103.751 83.2673 98.7592 75.8814C98.7592 75.8814 97.3354 73.9399 93.962 72.6536C93.962 72.6536 93.687 72.5646 93.242 72.4271C90.2488 71.0195 87.4012 70.1215 87.4012 70.1215C86.7945 69.9031 86.2525 69.6928 85.7671 69.4744C83.7447 68.4632 82.2643 67.3063 82.2643 67.3063C82.2643 67.3063 82.2481 67.2901 80.6868 65.7207C83.4939 62.8084 85.5568 58.8607 86.1959 55.0909C86.7055 54.5812 87.2071 53.748 87.4255 52.4374C87.8219 50.9732 88.3316 48.4168 87.4336 47.2277C87.3851 47.171 87.3365 47.1144 87.288 47.0578C88.1293 43.9756 89.1972 37.6171 85.3869 33.2729C85.0391 32.8441 82.9034 30.2878 78.3408 28.9368L76.1565 28.1926C72.5647 27.0843 70.2996 26.8335 70.2025 26.8254C70.0407 26.8092 69.8708 26.8254 69.709 26.8739C69.5796 26.9063 69.159 27.0196 68.8273 26.9791C67.9698 26.8497 66.6754 27.2946 66.4489 27.3836C66.1577 27.4968 59.1924 30.2878 57.081 36.7757C56.8869 37.3016 56.0455 40.0602 57.1619 46.8232C56.992 46.9364 56.8464 47.074 56.717 47.2438C55.819 48.4249 56.3287 50.9813 56.7251 52.4455C56.9435 53.748 57.445 54.5731 57.9385 55.0828C58.4967 58.8121 60.2845 62.4121 62.6467 65.1626L61.9753 66.1899L61.9591 66.1252L61.9348 66.2628C61.9429 66.2385 61.9672 66.2061 61.9753 66.1899L61.9672 66.198L61.9348 66.2628C60.9883 69.2155 49.6466 72.6617 49.6466 72.6617C46.2812 73.948 44.8575 75.8895 44.8575 75.8895C39.8742 83.2754 39.2917 108.014 39.2917 108.014C39.316 109.785 39.6962 110.78 40.0764 111.363C39.3079 111.08 38.5232 110.789 37.787 110.465C36.2176 109.785 33.2811 107.723 33.1921 101.841V101.712V101.582C33.2649 99.6894 34.0172 82.8628 39.8014 74.2716C40.1169 73.8347 41.1524 72.5404 43.0615 71.2056C43.0615 71.2056 43.0615 71.1975 43.0534 71.1975C45.9738 68.1719 48.1176 64.0623 48.7891 60.1307C49.3068 59.5968 49.8326 58.7393 50.0672 57.3722C50.4879 55.8513 51.0137 53.1898 50.0753 51.952C50.0268 51.8873 49.9702 51.8307 49.9216 51.7741C50.7953 48.5706 51.9117 41.9532 47.9477 37.4391C47.616 36.9861 45.3914 34.3327 40.6346 32.925L38.3695 32.1403C34.624 30.9835 32.2699 30.7327 32.1728 30.7166C32.0029 30.7004 31.8249 30.7166 31.6631 30.757C31.5337 30.8055 31.0888 30.9188 30.7409 30.8703C29.851 30.7408 28.5081 31.2019 28.2655 31.299C27.958 31.4123 20.7178 34.3165 18.5174 41.0714C18.3151 41.6134 17.4414 44.4852 18.5982 51.5233C18.4284 51.6366 18.2666 51.7822 18.129 51.9601C17.1906 53.1979 17.7246 55.8432 18.1371 57.3722C18.3556 58.7231 18.8814 59.5726 19.391 60.1146C19.9735 63.9976 21.8341 67.7351 24.2934 70.5988L23.5977 71.6667L23.5815 71.5939L23.5492 71.7395C23.5572 71.7152 23.5815 71.6829 23.5896 71.6586V71.6667L23.5492 71.7395C22.5703 74.8136 10.7755 78.3973 10.7755 78.3973C7.27265 79.7402 5.79223 81.7545 5.79223 81.7545C0.606729 89.4398 0 106.55 0 106.55C0.0647177 110.449 1.75547 110.861 1.75547 110.861C13.6716 116.176 32.375 117.115 32.375 117.115C33.3862 117.147 34.3166 117.09 35.255 117.034L35.2792 117.131C35.2792 117.131 42.3173 116.767 50.496 115.27C60.3573 117.657 70.3967 118.166 70.3967 118.166C71.3593 118.191 72.2654 118.134 73.1634 118.077L73.1876 118.174C73.1876 118.174 83.6638 117.641 93.7193 115.108C102.238 116.734 109.729 117.115 109.729 117.115C110.732 117.147 111.67 117.09 112.609 117.034L112.633 117.131C112.633 117.131 131.336 116.184 143.253 110.878C143.253 110.878 144.935 110.465 145 106.558C145.024 106.566 144.418 89.456 139.232 81.7626Z" fill="#030104"/>
</g>
<defs>
<clipPath id="clip0_608_8">
<rect width="145" height="145" fill="white"/>
</clipPath>
</defs>
</svg>
